<?xml version="1.0"?>
<svg width="512" height="512" xmlns="http://www.w3.org/2000/svg">

 <g>
  <title>background</title>
  <rect fill="none" id="canvas_background" height="402" width="582" y="-1" x="-1"/>
 </g>
 <g>
  <title>Layer 1</title>
  <path stroke="null" id="svg_1" d="m14.882862,24.985519l-4.085412,0l0,-7.650997c1.7842,-0.168764 3.455032,-0.848127 4.760474,-2.017482c3.080046,-2.761264 3.287481,-9.828329 0.376623,-12.816804l-0.244153,-0.250141l-11.421637,0l-0.243388,0.250141c-2.910038,2.988475 -2.700968,10.0563 0.379075,12.816804c1.303809,1.169354 2.974691,1.848718 4.758892,2.017482l0,7.650997l-4.085411,0c-0.451642,0 -0.817081,0.338943 -0.817081,0.757843s0.365439,0.757843 0.817081,0.757843l4.085411,0l1.634166,0l4.085412,0c0.451641,0 0.81708,-0.338945 0.81708,-0.757843s-0.365491,-0.757843 -0.817132,-0.757843zm-9.868007,-21.219731l9.93026,0c2.096988,2.546653 1.859166,8.326704 -0.523443,10.461085c-2.392217,2.144053 -6.487995,2.146984 -8.880972,0.00076c-2.382664,-2.135141 -2.622836,-7.915193 -0.525845,-10.461845zm1.093972,9.917146c-1.190539,-1.067191 -1.766633,-3.260073 -1.701214,-5.370058l11.145514,0c0.06705,2.110744 -0.509094,4.302867 -1.699584,5.369298c-1.977289,1.774028 -5.76666,1.774028 -7.744715,0.00076z" fill="#010101"/>
 </g>
</svg>