<?xml version="1.0"?>
<svg width="25" height="25" xmlns="http://www.w3.org/2000/svg" xmlns:svg="http://www.w3.org/2000/svg">
 <g>
  <title>Layer 1</title>
  <path id="svg_1" d="m17.534391,23.350004l-4.098581,0l0,-7.824163c1.789948,-0.172585 3.466173,-0.867318 4.775816,-2.063145c3.089987,-2.823762 3.298094,-10.050783 0.37785,-13.106896l-0.244936,-0.255801l-11.458483,0l-0.244188,0.255801c-2.919423,3.056113 -2.709673,10.283907 0.380316,13.106896c1.307999,1.195827 2.984282,1.890567 4.77423,2.063145l0,7.824163l-4.098583,0c-0.453097,0 -0.819716,0.346617 -0.819716,0.775s0.36662,0.775002 0.819716,0.775002l4.098583,0l1.639432,0l4.0986,0c0.453098,0 0.819715,-0.346622 0.819715,-0.775002s-0.366674,-0.775 -0.819771,-0.775zm-9.89983,-21.700005l9.962276,0c2.103762,2.604293 1.865179,8.515167 -0.525129,10.697858c-2.399915,2.192575 -6.508924,2.195576 -8.909606,0.000775c-2.390366,-2.183466 -2.631303,-8.09434 -0.527541,-10.698633zm1.097501,10.141603c-1.194388,-1.091348 -1.772345,-3.333858 -1.706702,-5.491603l11.181465,0c0.067268,2.158522 -0.510744,4.400255 -1.705078,5.490825c-1.983665,1.814182 -5.785252,1.814182 -7.769685,0.000778z" fill="#010101"/>
 </g>
</svg>