<?xml version="1.0"?>
<svg width="25" height="25" xmlns="http://www.w3.org/2000/svg" xmlns:svg="http://www.w3.org/2000/svg">
 <g>
  <title>Layer 1</title>
  <g stroke="null" id="svg_1">
   <path stroke="null" d="m4.402002,24.25993l2.949987,0c0.041002,0.304171 0.254015,0.54207 0.523009,0.54207l6.707004,0c0.268995,0 0.481999,-0.236719 0.522992,-0.54207l2.949996,0c0.499006,0 0.902998,-0.478159 0.902998,-1.06875l-15.457987,0c0,0.590591 0.403999,1.06875 0.902001,1.06875z" id="svg_2"/>
   <path stroke="null" d="m22.511005,13.27534c-0.751011,-0.72079 -1.810019,-0.73263 -2.508011,-0.64149c0.019997,-0.575211 0.031006,-1.16344 0.031006,-1.77534l-18.388,0c0,5.881101 0.751999,10.126519 5.510999,11.70893l7.365996,0c1.884991,-0.626101 3.135002,-1.677099 3.96401,-3.076059c1.805996,-0.04142 4.710995,-0.88294 4.819994,-3.834731c0.047001,-1.292439 -0.407,-2.00849 -0.795994,-2.38131zm-3.268011,4.528279c0.345997,-1.050999 0.551001,-2.23455 0.664005,-3.536469c0.489002,-0.09468 1.330002,-0.15504 1.754,0.25447c0.078997,0.07575 0.322004,0.31009 0.294004,1.06639c-0.057005,1.529151 -1.661015,2.042821 -2.712002,2.21561l-0.000008,0z" id="svg_3"/>
   <path stroke="null" d="m9.136998,10.03239c0,0 3.5,-0.304179 1.895991,-3.79685c-1.287994,-2.80385 -0.993982,-4.44899 0.65401,-5.93554c0,0 -5.397994,1.62739 -2.25,6.66343c1.155003,2.19431 -0.300001,3.06896 -0.300001,3.06896z" id="svg_4"/>
   <path stroke="null" d="m11.496005,9.75307c0,0 2.804,-0.69948 1.278,-3.3684c-0.554,-1.15752 0.209996,-1.57058 0.209996,-1.57058s-1.804997,0.06746 -1.043003,1.90316c0.609999,1.47589 0.429,2.31385 -0.444993,3.03582z" id="svg_5"/>
  </g>
 </g>
</svg>