<?xml version="1.0"?>
<svg width="24" height="24" xmlns="http://www.w3.org/2000/svg">

 <g>
  <title>background</title>
  <rect fill="none" id="canvas_background" height="26" width="26" y="-1" x="-1"/>
 </g>
 <g>
  <title>Layer 1</title>
  <g stroke="null" id="svg_1">
   <path stroke="null" id="svg_2" d="m3.033715,23.422041l3.247264,0c0.045132,0.297346 0.279595,0.5299 0.575702,0.5299l7.382847,0c0.296107,0 0.530571,-0.231396 0.575702,-0.5299l3.247265,0c0.549284,0 0.993994,-0.467422 0.993994,-1.04476l-17.015665,0c0,0.577337 0.44471,1.04476 0.992892,1.04476z"/>
   <path stroke="null" id="svg_3" d="m22.967514,12.684047c-0.826675,-0.704605 -1.99239,-0.716175 -2.760725,-0.627088c0.022017,-0.562294 0.034124,-1.137318 0.034124,-1.73548l-20.240913,0c0,5.749068 0.827777,9.899179 6.06633,11.446071l8.108253,0c2.074946,-0.612045 3.450906,-1.63945 4.363442,-3.007008c1.987986,-0.040495 5.185717,-0.863113 5.305698,-3.748637c0.051737,-1.26343 -0.448011,-1.963408 -0.876209,-2.327858zm-3.597309,4.426631c0.380867,-1.027403 0.606524,-2.184391 0.730909,-3.457076c0.538277,-0.092559 1.464022,-0.151566 1.930746,0.248752c0.086962,0.074047 0.354448,0.303131 0.323627,1.042445c-0.062744,1.494826 -1.828375,1.996959 -2.985283,2.165879z"/>
   <path stroke="null" id="svg_4" d="m8.24585,9.513903c0,0 3.852686,-0.297345 2.087055,-3.711614c-1.417789,-2.740901 -1.094164,-4.349113 0.719902,-5.802289c0,0 -5.941943,1.590857 -2.476727,6.513836c1.271387,2.145054 -0.33023,3.000067 -0.33023,3.000067z"/>
   <path stroke="null" id="svg_5" d="m10.84256,9.240854c0,0 3.086553,-0.68378 1.406781,-3.292785c-0.609825,-1.131533 0.231161,-1.535321 0.231161,-1.535321s-1.986886,0.065948 -1.148101,1.860435c0.671468,1.442763 0.472229,2.261909 -0.489841,2.967672z"/>
  </g>
 </g>
</svg>