<?xml version="1.0" encoding="utf-8"?>
<!-- Generator: Adobe Illustrator 16.0.4, SVG Export Plug-In . SVG Version: 6.00 Build 0)  -->
<!DOCTYPE svg PUBLIC "-//W3C//DTD SVG 1.1//EN" "http://www.w3.org/Graphics/SVG/1.1/DTD/svg11.dtd">
<svg version="1.1" id="Layer_1" xmlns="http://www.w3.org/2000/svg" xmlns:xlink="http://www.w3.org/1999/xlink" x="0px" y="0px"
	 width="900px" height="578.832px" viewBox="0 0 900 578.832" enable-background="new 0 0 900 578.832" xml:space="preserve">
<g>
	<path fill-rule="evenodd" clip-rule="evenodd" d="M450.677,385.204c-12.774-10.22-30.028-25.525-70.476-30.753
		c-63.693-8.23-103.707,43.396-142.452,84.851c-33.951,36.326-48.607,52.247-83.505,54.086
		c-48.552,2.554-63.033-34.927-29.813-53.668c33.223-18.738,54.518,23,54.518,23s5.963-72.402-63.888-60.479
		c-69.848,11.927-55.366,111.588,8.518,141.402c34.938,16.31,69.62,22.421,107.673,18.348
		c58.282-6.247,117.44-35.519,167.662-65.029c30.264-17.776,40.452-27.602,51.763-36.092c11.319,8.49,21.504,18.315,51.771,36.092
		c50.223,29.511,109.372,58.782,167.662,65.029c38.049,4.073,72.724-2.038,107.67-18.348
		c63.883-29.814,78.364-129.476,8.514-141.402c-69.845-11.923-63.885,60.479-63.885,60.479s21.301-41.737,54.52-23
		c33.218,18.742,18.736,56.222-29.813,53.668c-34.898-1.839-49.555-17.76-83.506-54.086
		c-38.747-41.455-78.763-93.081-142.448-84.851C480.709,359.679,463.46,374.984,450.677,385.204L450.677,385.204z"/>
	<path fill-rule="evenodd" clip-rule="evenodd" d="M19.761,35.726l3.111,49.843c0,0,20.769-7.269,31.153,58.148
		c10.384,65.418,19.732,156.79,170.29,158.864c150.562,2.075,181.712-134.983,190.018-154.715
		c8.31-19.722,10.384-34.26,19.731-38.418c11.866-5.273,21.363-5.273,33.227,0c9.354,4.158,11.428,18.696,19.723,38.418
		c8.315,19.732,39.464,156.79,190.022,154.715c150.559-2.074,159.91-93.446,170.29-158.864
		c10.389-65.417,31.157-58.148,31.157-58.148l3.111-49.843C770.491,9.771,629.275,10.808,558.663,32.614
		c-26.473,8.174-48.286,14.019-65.198,18.123c-38.279,9.3-47.293,9.3-85.579,0c-16.911-4.104-38.721-9.949-65.198-18.123
		C272.08,10.808,130.865,9.771,19.761,35.726L19.761,35.726z M155.651,44.594c-30.807,6.812-60.602,21.604-71.514,52.391
		c-14.95,42.206-4.284,88.367,15.201,123.005c26.83,47.707,65.308,63.395,118.333,65.197c55.346,1.89,124.468-18.36,155.128-112.395
		c21.903-67.167-5.476-100.347-40.747-116.632C288.622,36.095,202.18,34.302,155.651,44.594L155.651,44.594z M745.706,44.594
		c30.806,6.812,60.603,21.604,71.509,52.391c14.95,42.206,4.289,88.367-15.197,123.005c-26.824,47.707-65.312,63.395-118.337,65.197
		c-55.338,1.89-124.463-18.36-155.128-112.395c-21.903-67.167,5.475-100.347,40.746-116.632
		C612.735,36.095,699.176,34.302,745.706,44.594L745.706,44.594z M842.133,51.23c-12.032-0.615-21.798,1.907-21.798,5.634
		c0,3.726,9.766,7.251,21.798,7.867c12.041,0.615,21.813-1.908,21.813-5.643C863.946,55.36,854.174,51.845,842.133,51.23
		L842.133,51.23z M59.22,51.23c12.037-0.615,21.806,1.907,21.806,5.634c0,3.726-9.769,7.251-21.806,7.867
		c-12.042,0.615-21.81-1.908-21.81-5.643C37.41,55.36,47.179,51.845,59.22,51.23L59.22,51.23z"/>
</g>
</svg>
