<?xml version="1.0" encoding="UTF-8" standalone="no"?>
<svg width="365px" height="529px" viewBox="0 0 365 529" version="1.1" xmlns="http://www.w3.org/2000/svg" xmlns:xlink="http://www.w3.org/1999/xlink" xmlns:sketch="http://www.bohemiancoding.com/sketch/ns">
    <!-- Generator: Sketch 3.1.1 (8761) - http://www.bohemiancoding.com/sketch -->
    <title>Artboard 13</title>
    <desc>Created with Sketch.</desc>
    <defs></defs>
    <g id="Welcome" stroke="none" stroke-width="1" fill="none" fill-rule="evenodd" sketch:type="MSPage">
        <g id="Artboard-13" sketch:type="MSArtboardGroup">
            <g id="hipster-guy" sketch:type="MSLayerGroup" transform="translate(218.500000, 262.500000) scale(-1, 1) translate(-218.500000, -262.500000) translate(78.000000, 3.000000)">
                <path d="M249.637,284.459 C250.985,282.145 250.076,281.269 249.163,279.746 C248.931,279.359 248.601,279.143 248.215,279.035 C245.987,282.777 245.168,287.738 245.168,287.738 C246.065,286.842 247.879,285.359 249.637,284.459" id="Fill-1" fill="#D8BF98" sketch:type="MSShapeGroup"></path>
                <path d="M249.288,277.461 C249.162,277.598 249.048,277.721 248.944,277.834 C248.931,277.848 248.919,277.861 248.906,277.875 C248.812,277.977 248.728,278.066 248.653,278.146 C248.643,278.157 248.632,278.168 248.621,278.18 C248.551,278.255 248.49,278.318 248.44,278.371 C248.431,278.381 248.422,278.391 248.413,278.4 C248.307,278.512 248.247,278.572 248.247,278.572 L236.265,265.816 C233.529,268.047 228.099,272.849 225.314,277.867 C225.48,281.475 225.631,285.006 225.771,288.49 C225.772,288.491 225.773,288.492 225.774,288.494 C234.679,296.978 239.673,304.219 248.164,295.978 C256.655,287.738 255.156,286.988 253.658,284.491 C252.928,283.274 251.308,283.603 249.637,284.459 C247.879,285.359 246.065,286.842 245.168,287.738 C245.168,287.738 245.987,282.777 248.215,279.035 C248.597,278.395 249.015,277.785 249.482,277.246 C249.418,277.317 249.357,277.384 249.298,277.449 C249.295,277.453 249.291,277.457 249.288,277.461" id="Fill-2" fill="#ECD2A6" sketch:type="MSShapeGroup"></path>
                <path d="M40.828,68.587 C41.519,69.84 41.645,71.356 41.423,72.962 C45.397,66.456 44.192,51.123 43.152,49.838 C41.523,47.825 37.342,47.825 38.058,53.89 C38.411,56.886 35.511,60.426 32.385,62.046 C32.021,62.235 31.722,62.479 31.468,62.757 C35.864,64.592 39.589,66.341 40.828,68.587" id="Fill-3" fill="#D8BF98" sketch:type="MSShapeGroup"></path>
                <path d="M27.521,61.125 C24.343,58.664 21.195,55.851 19.04,52.259 C15.363,46.129 20.269,42.422 13.383,41.678 C12.351,41.567 11.56,41.91 10.981,42.577 C11.588,44.428 10.478,47.4 12.852,51.357 C15.526,55.815 21.644,58.675 27.521,61.125" id="Fill-4" fill="#D8BF98" sketch:type="MSShapeGroup"></path>
                <path d="M4.029,42.286 C3.724,42.265 3.398,42.253 3.035,42.255 C-4.021,42.296 1.887,61.266 10.764,64.863 C14.329,66.308 19.227,68.921 22.921,70.985 C19.565,68.593 15.366,65.731 12.204,64.009 C5.455,60.336 1.71,47.133 4.029,42.286" id="Fill-5" fill="#D8BF98" sketch:type="MSShapeGroup"></path>
                <path d="M28.076,74.757 L27.415,79.905 L28.586,75.143 C28.586,75.143 28.402,75.003 28.076,74.757" id="Fill-6" fill="#D8BF98" sketch:type="MSShapeGroup"></path>
                <path d="M41.423,72.962 C41.645,71.356 41.519,69.84 40.828,68.587 C39.589,66.341 35.864,64.592 31.468,62.757 C30.193,62.225 28.865,61.686 27.521,61.125 C21.644,58.675 15.526,55.815 12.852,51.357 C10.478,47.4 11.588,44.428 10.981,42.577 C10.623,41.484 9.669,40.781 7.046,40.498 C5.606,40.343 4.622,41.045 4.029,42.286 C1.71,47.133 5.455,60.336 12.204,64.009 C15.366,65.731 19.565,68.593 22.921,70.985 C25.268,72.658 27.2,74.098 28.076,74.757 C28.402,75.003 28.586,75.143 28.586,75.143 L27.317,80.304 L37.522,82.37 C39.082,79.834 40.971,76.216 41.423,72.962" id="Fill-7" fill="#ECD2A6" sketch:type="MSShapeGroup"></path>
                <path d="M151.783,487.974 C149.108,487.974 147.328,486.253 147.328,486.253 L146.995,482.652 C144.506,484.735 134.671,492.891 128.73,496.75 C123.17,500.363 109.169,508.801 107.409,514.093 C107.411,514.096 109.233,516.803 121.581,515.503 C138.333,513.739 164.169,497.42 164.76,497.046 C164.681,492.066 164.39,483.993 163.329,482.762 C162.375,481.653 160.69,481.181 159.547,480.98 C162.186,482.835 157.205,487.974 151.783,487.974 L151.783,487.974 Z M131.768,497.882 C131.768,497.882 136.453,497.219 138.266,499.893 C140.08,502.566 133.883,500.753 131.768,497.882 L131.768,497.882 Z M136.014,494.492 C136.014,494.492 140.699,493.829 142.512,496.503 C144.326,499.177 138.129,497.363 136.014,494.492 L136.014,494.492 Z M140.26,491.102 C140.26,491.102 144.945,490.439 146.758,493.113 C148.572,495.787 142.375,493.974 140.26,491.102 L140.26,491.102 Z" id="Fill-8" fill="#C88547" sketch:type="MSShapeGroup"></path>
                <path d="M107.249,515.371 C107.222,514.977 107.271,514.561 107.4,514.127 C107.259,514.565 107.209,514.981 107.249,515.371" id="Fill-9" fill="#705E50" sketch:type="MSShapeGroup"></path>
                <path d="M164.786,499.912 L164.786,500.986 C164.786,500.986 164.788,500.589 164.786,499.912" id="Fill-10" fill="#705E50" sketch:type="MSShapeGroup"></path>
                <path d="M107.409,514.093 C107.405,514.105 107.403,514.115 107.4,514.127 C107.271,514.561 107.222,514.977 107.249,515.371 C107.53,519.373 115.782,521.184 130.639,517.318 C149.144,512.504 164.786,500.986 164.786,500.986 L164.786,499.912 L164.787,497.028 C164.787,497.028 164.766,497.042 164.76,497.046 C164.169,497.42 138.333,513.739 121.581,515.503 C109.233,516.803 107.411,514.096 107.409,514.093" id="Fill-11" fill="#E6E7E8" sketch:type="MSShapeGroup"></path>
                <path d="M131.768,497.882 C133.883,500.753 140.08,502.566 138.266,499.893 C136.453,497.219 131.768,497.882 131.768,497.882" id="Fill-12" fill="#ECD2A6" sketch:type="MSShapeGroup"></path>
                <path d="M136.014,494.492 C138.129,497.363 144.326,499.177 142.512,496.503 C140.699,493.829 136.014,494.492 136.014,494.492" id="Fill-13" fill="#ECD2A6" sketch:type="MSShapeGroup"></path>
                <path d="M140.26,491.102 C142.375,493.974 148.572,495.787 146.758,493.113 C144.945,490.439 140.26,491.102 140.26,491.102" id="Fill-14" fill="#ECD2A6" sketch:type="MSShapeGroup"></path>
                <path d="M201.174,486.762 C201.174,486.762 196.521,482.442 199.844,480.781 C200.066,480.67 200.277,480.515 200.478,480.326 C199.335,480.52 197.609,480.99 196.639,482.117 C195.578,483.349 195.287,491.422 195.209,496.4 C195.779,496.763 221.629,513.094 238.387,514.858 C250.719,516.157 252.553,513.458 252.56,513.448 C250.801,508.157 236.799,499.719 231.238,496.105 C224.397,491.66 212.383,481.512 212.383,481.512 L211.622,481.419 L210.809,486.762 L201.174,486.762 L201.174,486.762 Z M228.201,497.237 C226.085,500.108 219.889,501.922 221.702,499.248 C223.516,496.574 228.201,497.237 228.201,497.237 L228.201,497.237 Z M223.955,493.848 C221.839,496.719 215.643,498.532 217.456,495.858 C219.27,493.185 223.955,493.848 223.955,493.848 L223.955,493.848 Z M213.21,492.469 C215.023,489.795 219.709,490.458 219.709,490.458 C217.593,493.329 211.397,495.143 213.21,492.469 L213.21,492.469 Z" id="Fill-15" fill="#C88547" sketch:type="MSShapeGroup"></path>
                <path d="M252.59,513.573 C252.699,513.974 252.744,514.358 252.719,514.725 C252.756,514.362 252.711,513.978 252.59,513.573" id="Fill-16" fill="#705E50" sketch:type="MSShapeGroup"></path>
                <path d="M195.182,500.342 L195.182,499.198 C195.18,499.915 195.182,500.342 195.182,500.342" id="Fill-17" fill="#705E50" sketch:type="MSShapeGroup"></path>
                <path d="M238.387,514.858 C221.629,513.094 195.779,496.763 195.209,496.4 C195.202,496.396 195.182,496.384 195.182,496.384 L195.182,500.342 C195.182,500.342 210.824,511.859 229.33,516.674 C244.19,520.54 252.44,518.728 252.719,514.725 C252.744,514.358 252.699,513.974 252.59,513.573 C252.579,513.531 252.572,513.49 252.56,513.448 C252.553,513.458 250.719,516.157 238.387,514.858" id="Fill-18" fill="#E6E7E8" sketch:type="MSShapeGroup"></path>
                <path d="M221.702,499.248 C219.889,501.922 226.085,500.108 228.201,497.237 C228.201,497.237 223.516,496.574 221.702,499.248" id="Fill-19" fill="#ECD2A6" sketch:type="MSShapeGroup"></path>
                <path d="M217.456,495.858 C215.643,498.532 221.839,496.719 223.955,493.848 C223.955,493.848 219.27,493.185 217.456,495.858" id="Fill-20" fill="#ECD2A6" sketch:type="MSShapeGroup"></path>
                <path d="M219.709,490.458 C219.709,490.458 215.023,489.795 213.21,492.469 C211.397,495.143 217.593,493.329 219.709,490.458" id="Fill-21" fill="#ECD2A6" sketch:type="MSShapeGroup"></path>
                <path d="M146.995,482.652 L147.328,486.253 C147.328,486.253 149.108,487.974 151.783,487.974 C157.205,487.974 162.186,482.835 159.547,480.98 C159.45,480.913 159.368,480.84 159.251,480.781 C158.005,480.158 157.085,478.227 156.424,476.055 L146.385,476.055 L146.995,482.652" id="Fill-22" fill="#ECD2A6" sketch:type="MSShapeGroup"></path>
                <path d="M200.478,480.326 C200.277,480.515 200.066,480.67 199.844,480.781 C196.521,482.442 201.174,486.762 201.174,486.762 L210.809,486.762 L212.438,476.055 L202.672,476.055 C202.128,477.839 201.409,479.459 200.478,480.326" id="Fill-23" fill="#ECD2A6" sketch:type="MSShapeGroup"></path>
                <path d="M137.981,132.539 L158.1,132.539 C158.09,133.04 158.118,133.592 158.21,134.17 C158.459,135.728 159.186,137.457 160.938,138.798 C162.199,139.765 163.988,140.531 166.525,140.881 C170.266,141.397 172.849,140.161 174.375,139.012 C175.51,138.159 176.063,137.354 176.063,137.354 C176.063,137.354 176.684,140.73 182.383,141.075 C183.256,141.128 184.238,141.114 185.365,141.002 C193.098,140.231 194.074,134.983 194.103,132.539 L223.397,132.539 L223.397,45.87 C223.397,40.347 218.92,35.87 213.397,35.87 L138.73,35.87 C133.207,35.87 128.73,40.347 128.73,45.87 L128.73,132.539 L137.981,132.539 L137.981,132.539 Z M149.943,85.808 C147.81,85.808 146.082,84.079 146.082,81.946 C146.082,79.812 147.81,78.084 149.943,78.084 C152.076,78.084 153.806,79.812 153.806,81.946 C153.806,84.079 152.076,85.808 149.943,85.808 L149.943,85.808 Z M155.105,118.491 C155.105,118.491 181.735,123.279 192.626,113.625 C192.626,113.625 180.842,128.185 155.105,118.491 L155.105,118.491 Z M198.443,85.808 C196.31,85.808 194.581,84.079 194.581,81.946 C194.581,79.812 196.31,78.084 198.443,78.084 C200.577,78.084 202.306,79.812 202.306,81.946 C202.306,84.079 200.577,85.808 198.443,85.808 L198.443,85.808 Z M183.504,59.795 L185.819,66.432 L185.819,61.512 C197.105,61.802 213.518,68.458 213.518,68.458 C205.911,66.432 183.504,66.721 183.504,66.721 L183.504,59.795 L183.504,59.795 Z M167.828,79 L166.947,107.291 L177.071,106.191 L178.172,99.148 L179.271,108.832 L164.307,108.832 L167.828,79 L167.828,79 Z M160.845,65.843 L160.845,70.763 L163.16,64.126 L163.16,71.052 C163.16,71.052 140.753,70.763 133.146,72.789 C133.146,72.789 149.559,66.133 160.845,65.843 L160.845,65.843 Z" id="Fill-24" fill="#ECD2A6" sketch:type="MSShapeGroup"></path>
                <path d="M77.253,167.366 L77.253,167.365 L77.252,167.365 L77.253,167.366" id="Fill-25" fill="#6DB572" sketch:type="MSShapeGroup"></path>
                <path d="M82.582,158.322 C82.583,158.322 82.584,158.322 82.585,158.323 C79.133,157.785 75.497,156.952 71.671,155.761 C71.142,155.596 70.624,155.421 70.11,155.244 L77.253,167.365 L82.582,158.322 Z M147.616,184.423 L147.616,184.421 L147.615,184.423 L137.563,167.366 L128.73,182.355 L128.73,186.491 L137.563,201.482 L147.616,184.423 Z M37.046,133.248 L29.525,146.012 C32.053,152.061 35.379,157.798 39.699,162.862 L47.099,150.307 L37.046,133.248 Z M70.48,178.859 C74.416,179.536 79.311,180.133 84.862,180.278 L77.253,167.366 L70.48,178.859 Z M37.046,99.132 L26.995,116.189 L37.046,133.248 L41.561,125.585 C41.561,125.587 41.562,125.589 41.563,125.591 C39.114,117.655 38.519,109.404 38.865,102.209 C38.865,102.212 38.864,102.214 38.864,102.217 L37.046,99.132 Z M53.15,174.153 C53.287,174.233 53.418,174.318 53.556,174.397 C53.556,174.397 50.467,178.924 56.993,179.948 C59.636,180.363 60.43,176.511 60.43,176.511 C60.43,176.511 61.333,176.815 62.973,177.248 L57.15,167.366 L53.15,174.153 Z M26.995,116.187 L26.994,116.189 L22.04,107.781 C22.194,112.427 22.57,117.386 23.294,122.468 L26.995,116.189 L26.995,116.187 Z M26.995,82.071 L26.994,82.072 L25.768,79.991 L23.649,79.562 C23.649,79.562 22.963,83.477 22.463,89.764 L26.995,82.072 L26.995,82.071 Z M111.79,176.989 C110.509,177.356 109.233,177.689 107.966,177.989 C112.302,176.972 116.73,175.549 121.161,173.644 L117.461,167.366 L111.79,176.989 Z M47.099,150.307 L57.15,167.365 L65.403,153.359 L65.404,153.359 C59.596,150.692 54.966,147.186 51.311,143.15 C51.313,143.151 51.313,143.152 51.314,143.153 L47.099,150.307 Z M89.746,180.282 C94.258,180.174 99.092,179.726 104.093,178.796 L97.356,167.366 L89.746,180.282 Z M152.401,244.537 L162.934,244.537 L157.667,235.601 L152.401,244.537 Z M172.505,244.537 L173.865,244.537 L174.365,244.531 L174.365,244.537 L179.676,244.537 L180.176,244.531 L180.176,244.537 L183.037,244.537 L177.771,235.601 L172.505,244.537 Z M192.607,244.537 L203.141,244.537 L197.874,235.601 L192.607,244.537 Z M212.712,244.537 L223.244,244.537 L217.978,235.601 L212.712,244.537 Z M259.442,199.347 L268.237,184.423 L268.237,184.421 L268.236,184.423 L258.185,167.366 L248.758,183.363 C248.754,183.358 248.749,183.354 248.745,183.35 C250.232,184.982 251.709,186.731 253.165,188.639 C255.883,192.2 257.939,195.781 259.442,199.347 Z M268.236,218.541 L262.077,208.088 C263.802,217.412 262.146,226.41 258.893,234.403 C258.894,234.398 258.897,234.393 258.899,234.387 L268.237,218.541 L268.237,218.539 L268.236,218.541 Z M248.023,252.442 C243.057,258.538 238.029,262.844 235.069,264.544 L248.247,278.572 L238.794,268.509 L248.133,252.657 L248.014,252.455 C248.017,252.451 248.021,252.446 248.023,252.442 Z M278.288,201.482 L279.643,199.183 C278.849,194.612 277.477,190.032 275.373,185.5 C275.373,185.5 281.269,181.54 276.431,177.041 C275.398,176.081 274.38,175.656 273.498,175.494 L268.237,184.423 L278.288,201.482 Z M147.616,218.541 L147.616,218.539 L147.615,218.541 L137.563,201.482 L128.73,216.473 L128.73,220.609 L137.563,235.6 L147.616,218.541 Z M132.297,244.537 L142.83,244.537 L137.563,235.601 L132.297,244.537 Z M260.13,164.065 C258.016,162.197 255.588,160.245 252.853,158.318 L258.185,167.365 L260.13,164.065 Z M268.237,218.541 L276.458,232.493 C279.343,223.818 281.019,214.481 280.358,204.995 L278.288,201.482 L268.237,218.541 Z M258.354,235.681 C255.795,241.58 252.396,246.897 248.902,251.346 C248.907,251.339 248.912,251.333 248.917,251.326 L248.133,252.657 L257.145,267.951 C260.423,263.617 264.202,258.135 267.755,251.839 L258.304,235.803 C258.321,235.762 258.338,235.721 258.354,235.681 Z M207.927,184.423 L217.978,201.482 L223.397,192.285 L223.397,176.563 L217.978,167.366 L207.927,184.423 Z M207.927,218.541 L217.978,235.6 L223.397,226.402 L223.397,210.68 L217.978,201.482 L207.927,218.541 Z M187.822,184.423 L177.771,167.366 L167.72,184.423 L177.771,201.482 L187.822,184.423 Z M207.926,218.541 L197.874,201.482 L187.822,218.541 L197.874,235.6 L207.927,218.541 L207.927,218.539 L207.926,218.541 Z M167.72,218.541 L177.771,235.6 L187.822,218.541 L177.771,201.482 L167.72,218.541 Z M235.31,172.03 C238.713,174.14 242.155,176.771 245.56,180.056 L238.082,167.366 L235.327,172.041 C235.321,172.037 235.315,172.034 235.31,172.03 Z M97.356,167.365 L102.821,158.093 C102.823,158.092 102.826,158.092 102.828,158.091 C99.641,158.713 96.192,159.082 92.469,159.093 L92.482,159.093 L97.356,167.365 Z M147.616,150.305 L147.615,150.307 L137.563,133.248 L127.512,150.307 L137.563,167.365 L147.616,150.307 L147.616,150.305 Z M177.771,167.365 L187.822,150.307 L182.383,141.075 C176.684,140.73 176.063,137.354 176.063,137.354 C176.063,137.354 175.51,138.159 174.375,139.012 L167.72,150.307 L177.771,167.365 Z M207.926,150.307 L197.874,133.248 L187.822,150.307 L197.874,167.365 L207.927,150.307 L207.927,150.305 L207.926,150.307 Z M167.72,184.423 L157.667,167.366 L147.616,184.423 L157.667,201.482 L167.72,184.423 Z M167.72,218.541 L157.667,201.482 L147.616,218.541 L157.667,235.6 L167.72,218.541 Z M197.874,201.482 L207.927,184.423 L207.927,184.421 L207.926,184.423 L197.874,167.366 L187.822,184.423 L197.874,201.482 Z M127.512,150.307 L125.694,147.222 C122.171,150.18 117.189,153.518 110.706,155.901 L117.461,167.365 L127.512,150.307 Z M26.995,82.072 L37.046,99.131 L39.572,94.845 C40.315,89.732 41.463,85.658 42.515,83.38 L37.522,82.37 L27.317,80.304 L26.139,80.066 L27.96,80.435 L26.995,82.072 Z M147.616,150.307 L157.667,167.365 L167.72,150.307 L160.938,138.798 C159.186,137.457 158.459,135.728 158.21,134.17 L157.667,133.248 L147.616,150.307 Z M207.927,150.307 L217.978,167.365 L228.03,150.307 L225.411,145.863 C226.137,146.035 226.852,146.218 227.559,146.407 C226.199,146.043 224.82,145.698 223.397,145.399 L223.397,142.445 L217.978,133.248 L207.927,150.307 Z M238.082,167.365 L245.974,153.971 C241.281,151.314 235.931,148.91 229.924,147.093 L228.03,150.307 L238.082,167.365 Z" id="Fill-26" fill="#E67D1D" sketch:type="MSShapeGroup"></path>
                <path d="M257.138,267.961 C255.881,269.623 254.697,271.115 253.63,272.421 C254.698,271.115 255.88,269.624 257.138,267.961" id="Fill-27" fill="#6DB572" sketch:type="MSShapeGroup"></path>
                <path d="M21.959,103.206 C21.957,102.675 21.951,102.135 21.955,101.615 C21.951,102.135 21.957,102.675 21.959,103.206" id="Fill-34" fill="#6DB572" sketch:type="MSShapeGroup"></path>
                <path d="M22.001,106.297 C21.989,105.779 21.973,105.255 21.966,104.746 C21.973,105.255 21.989,105.779 22.001,106.297" id="Fill-35" fill="#6DB572" sketch:type="MSShapeGroup"></path>
                <path d="M21.976,100.175 C21.984,99.663 21.988,99.14 22,98.642 C21.988,99.14 21.984,99.663 21.976,100.175" id="Fill-36" fill="#6DB572" sketch:type="MSShapeGroup"></path>
                <path d="M22.334,91.484 C22.368,90.987 22.404,90.506 22.441,90.032 C22.404,90.504 22.368,90.987 22.334,91.484" id="Fill-37" fill="#6DB572" sketch:type="MSShapeGroup"></path>
                <path d="M57.15,167.366 L57.15,167.365 L57.15,167.366" id="Fill-39" fill="#6DB572" sketch:type="MSShapeGroup"></path>
                <path d="M124.033,172.347 C123.185,172.751 122.334,173.136 121.483,173.506 C122.333,173.136 123.184,172.754 124.033,172.347" id="Fill-41" fill="#6DB572" sketch:type="MSShapeGroup"></path>
                <path d="M37.046,99.131 L37.046,99.132 L37.046,99.131" id="Fill-42" fill="#6DB572" sketch:type="MSShapeGroup"></path>
                <path d="M107.897,178.006 C106.842,178.256 105.796,178.468 104.752,178.671 C105.795,178.469 106.843,178.253 107.897,178.006" id="Fill-45" fill="#6DB572" sketch:type="MSShapeGroup"></path>
                <path d="M258.185,167.365 L258.184,167.365 L258.185,167.366 L258.185,167.365" id="Fill-46" fill="#6DB572" sketch:type="MSShapeGroup"></path>
                <path d="M137.563,235.6 L137.562,235.6 L137.563,235.601 L137.564,235.6 L137.563,235.6" id="Fill-55" fill="#6DB572" sketch:type="MSShapeGroup"></path>
                <path d="M272.47,175.406 C272.615,175.402 272.769,175.407 272.929,175.418 C272.769,175.407 272.615,175.402 272.47,175.406" id="Fill-56" fill="#6DB572" sketch:type="MSShapeGroup"></path>
                <path d="M273.062,175.432 C273.182,175.443 273.305,175.458 273.431,175.48 C273.304,175.458 273.182,175.443 273.062,175.432" id="Fill-58" fill="#6DB572" sketch:type="MSShapeGroup"></path>
                <path d="M279.691,199.453 C279.812,200.168 279.915,200.882 280.009,201.596 C279.916,200.882 279.811,200.168 279.691,199.453" id="Fill-59" fill="#6DB572" sketch:type="MSShapeGroup"></path>
                <path d="M280.098,202.261 C280.205,203.172 280.295,204.082 280.358,204.991 C280.295,204.082 280.205,203.172 280.098,202.261" id="Fill-60" fill="#6DB572" sketch:type="MSShapeGroup"></path>
                <path d="M276.324,232.9 C276.103,233.549 275.88,234.197 275.647,234.838 C275.88,234.196 276.104,233.55 276.324,232.9" id="Fill-65" fill="#6DB572" sketch:type="MSShapeGroup"></path>
                <path d="M238.082,167.366 L238.083,167.365 L238.081,167.365 L238.082,167.366" id="Fill-71" fill="#6DB572" sketch:type="MSShapeGroup"></path>
                <path d="M217.978,167.366 L217.978,167.365 L217.977,167.365 L217.978,167.366" id="Fill-74" fill="#6DB572" sketch:type="MSShapeGroup"></path>
                <path d="M137.563,167.365 L137.562,167.365 L137.563,167.366 L137.564,167.365 L137.563,167.365" id="Fill-76" fill="#6DB572" sketch:type="MSShapeGroup"></path>
                <path d="M157.667,235.601 L157.668,235.6 L157.666,235.6 L157.667,235.601" id="Fill-80" fill="#6DB572" sketch:type="MSShapeGroup"></path>
                <path d="M217.978,235.601 L217.978,235.6 L217.977,235.6 L217.978,235.601" id="Fill-82" fill="#6DB572" sketch:type="MSShapeGroup"></path>
                <path d="M157.667,167.365 L157.666,167.365 L157.667,167.366 L157.668,167.365 L157.667,167.365" id="Fill-83" fill="#6DB572" sketch:type="MSShapeGroup"></path>
                <path d="M197.874,235.601 L197.875,235.6 L197.873,235.6 L197.874,235.601" id="Fill-85" fill="#6DB572" sketch:type="MSShapeGroup"></path>
                <path d="M177.771,167.366 L177.772,167.365 L177.771,167.365 L177.771,167.366" id="Fill-86" fill="#6DB572" sketch:type="MSShapeGroup"></path>
                <path d="M197.874,167.366 L197.875,167.365 L197.873,167.365 L197.874,167.366" id="Fill-87" fill="#6DB572" sketch:type="MSShapeGroup"></path>
                <path d="M177.771,235.601 L177.772,235.6 L177.771,235.6 L177.771,235.601" id="Fill-88" fill="#6DB572" sketch:type="MSShapeGroup"></path>
                <path d="M70.45,178.854 C69.264,178.649 68.165,178.439 67.164,178.23 C68.165,178.44 69.262,178.649 70.45,178.854" id="Fill-90" fill="#6DB572" sketch:type="MSShapeGroup"></path>
                <path d="M27.364,140.213 C26.723,138.275 26.152,136.318 25.645,134.356 C26.152,136.319 26.723,138.275 27.364,140.213" id="Fill-91" fill="#6DB572" sketch:type="MSShapeGroup"></path>
                <path d="M22.1,95.688 C22.158,94.32 22.231,93.019 22.313,91.79 C22.231,93.019 22.158,94.32 22.1,95.688" id="Fill-92" fill="#6DB572" sketch:type="MSShapeGroup"></path>
                <path d="M117.461,167.366 L117.462,167.365 L117.46,167.365 L117.461,167.366" id="Fill-93" fill="#6DB572" sketch:type="MSShapeGroup"></path>
                <path d="M97.356,167.366 L97.357,167.365 L97.356,167.365 L97.356,167.366" id="Fill-94" fill="#6DB572" sketch:type="MSShapeGroup"></path>
                <path d="M252.838,273.381 C252.474,273.817 252.128,274.227 251.799,274.612 C252.128,274.227 252.474,273.817 252.838,273.381" id="Fill-96" fill="#6DB572" sketch:type="MSShapeGroup"></path>
                <path d="M249.482,277.246 C249.554,277.168 249.643,277.068 249.72,276.982 C249.575,277.143 249.423,277.313 249.298,277.449 C249.357,277.384 249.418,277.317 249.482,277.246" id="Fill-97" fill="#6DB572" sketch:type="MSShapeGroup"></path>
                <path d="M251.448,275.018 C251.249,275.249 251.048,275.483 250.865,275.693 C251.049,275.482 251.249,275.25 251.448,275.018" id="Fill-98" fill="#6DB572" sketch:type="MSShapeGroup"></path>
                <path d="M250.517,276.088 C250.359,276.267 250.2,276.447 250.058,276.607 C250.201,276.447 250.359,276.268 250.517,276.088" id="Fill-99" fill="#6DB572" sketch:type="MSShapeGroup"></path>
                <path d="M248.247,278.572 C248.247,278.572 248.307,278.512 248.413,278.4 C248.306,278.512 248.247,278.572 248.247,278.572" id="Fill-100" fill="#6DB572" sketch:type="MSShapeGroup"></path>
                <path d="M158.085,132.539 L157.249,132.539 L157.667,133.248 L158.085,132.539" id="Fill-102" fill="#6DB572" sketch:type="MSShapeGroup"></path>
                <path d="M198.292,132.539 L197.456,132.539 L197.874,133.248 L198.292,132.539" id="Fill-103" fill="#6DB572" sketch:type="MSShapeGroup"></path>
                <path d="M218.396,132.539 L217.56,132.539 L217.978,133.248 L218.396,132.539" id="Fill-104" fill="#6DB572" sketch:type="MSShapeGroup"></path>
                <path d="M137.145,132.539 L137.563,133.248 L137.981,132.539 L137.145,132.539" id="Fill-107" fill="#6DB572" sketch:type="MSShapeGroup"></path>
                <path d="M280.358,204.995 L280.358,204.991 C280.295,204.082 280.205,203.172 280.098,202.261 C280.071,202.04 280.037,201.818 280.009,201.596 C279.915,200.882 279.812,200.168 279.691,199.453 C279.675,199.359 279.666,199.265 279.649,199.171 L279.643,199.183 L278.288,201.482 L280.358,204.995 Z M217.978,167.366 L223.397,176.563 L223.397,166.522 C223.93,166.69 224.467,166.872 225.006,167.063 C225.226,167.14 225.446,167.224 225.666,167.305 C225.975,167.418 226.284,167.534 226.595,167.655 C226.887,167.77 227.181,167.888 227.475,168.01 C227.693,168.1 227.912,168.193 228.132,168.287 C228.492,168.441 228.853,168.597 229.215,168.763 C229.294,168.799 229.373,168.837 229.453,168.874 C231.382,169.766 233.339,170.81 235.31,172.03 C235.315,172.034 235.321,172.037 235.327,172.041 L238.082,167.366 L238.081,167.365 L238.082,167.365 L228.03,150.307 L217.978,167.365 L217.978,167.366 Z M228.03,150.307 L229.924,147.093 L229.931,147.082 C229.247,146.875 228.553,146.677 227.853,146.487 C227.755,146.46 227.657,146.434 227.559,146.407 C226.852,146.218 226.137,146.035 225.411,145.863 L228.03,150.307 Z M217.978,133.248 L223.397,142.445 L223.397,132.539 L218.396,132.539 L217.978,133.248 Z M276.458,232.493 L268.237,218.541 L258.899,234.387 C258.897,234.393 258.894,234.398 258.893,234.403 C258.718,234.832 258.538,235.258 258.354,235.681 C258.338,235.721 258.321,235.762 258.304,235.803 L267.755,251.839 L267.755,251.84 C267.771,251.811 267.786,251.782 267.802,251.754 C268.153,251.131 268.502,250.496 268.848,249.857 C268.947,249.674 269.045,249.489 269.144,249.305 C269.435,248.762 269.723,248.214 270.008,247.66 C270.088,247.506 270.168,247.352 270.248,247.196 C270.603,246.498 270.956,245.793 271.303,245.08 C271.36,244.96 271.418,244.838 271.476,244.717 C271.765,244.117 272.049,243.512 272.33,242.9 C272.422,242.701 272.513,242.502 272.603,242.301 C272.887,241.676 273.166,241.045 273.44,240.41 C273.488,240.295 273.539,240.182 273.588,240.066 C273.905,239.324 274.214,238.573 274.515,237.817 C274.587,237.637 274.656,237.455 274.727,237.273 C274.962,236.675 275.191,236.072 275.416,235.467 C275.493,235.258 275.571,235.049 275.647,234.838 C275.88,234.197 276.103,233.549 276.324,232.9 C276.369,232.767 276.418,232.636 276.463,232.502 L276.458,232.493 Z M217.978,235.6 L217.978,235.601 L223.244,244.537 L223.397,244.537 L223.397,226.402 L217.978,235.6 Z M268.237,184.423 L259.442,199.347 C260.053,200.794 260.571,202.239 261.005,203.678 C261.018,203.721 261.03,203.764 261.043,203.807 C261.251,204.506 261.44,205.203 261.609,205.899 C261.611,205.907 261.613,205.915 261.615,205.922 C261.789,206.644 261.942,207.364 262.076,208.082 C262.076,208.084 262.077,208.086 262.077,208.088 L268.236,218.541 L268.237,218.539 L268.237,218.541 L278.288,201.482 L268.237,184.423 Z M223.397,210.68 L223.397,192.285 L217.978,201.482 L223.397,210.68 Z M258.185,167.365 L258.185,167.366 L268.236,184.423 L268.237,184.421 L268.237,184.423 L273.498,175.494 L273.501,175.489 C273.477,175.485 273.455,175.484 273.431,175.48 C273.305,175.458 273.182,175.443 273.062,175.432 C273.018,175.428 272.972,175.421 272.929,175.418 C272.769,175.407 272.615,175.402 272.47,175.406 C272.452,175.406 272.435,175.407 272.419,175.407 C272.279,175.412 272.147,175.421 272.023,175.435 C272.012,175.437 272,175.438 271.989,175.439 C271.719,175.472 271.487,175.522 271.309,175.571 C271.306,175.571 271.305,175.572 271.303,175.572 C271.219,175.596 271.147,175.618 271.088,175.639 C271.075,175.643 271.066,175.646 271.055,175.65 C271.008,175.667 270.969,175.681 270.941,175.692 C270.931,175.696 270.926,175.698 270.919,175.701 C270.897,175.71 270.878,175.719 270.878,175.719 C270.878,175.719 270.863,175.697 270.835,175.656 C270.78,175.577 270.67,175.419 270.507,175.196 C270.503,175.191 270.501,175.189 270.497,175.183 C270.415,175.07 270.318,174.94 270.21,174.794 C270.207,174.791 270.205,174.788 270.202,174.785 C270.096,174.643 269.976,174.484 269.844,174.314 C269.835,174.302 269.828,174.293 269.819,174.281 C269.686,174.109 269.54,173.922 269.382,173.723 C269.372,173.711 269.363,173.7 269.353,173.688 C269.194,173.486 269.021,173.271 268.836,173.045 C268.825,173.032 268.815,173.02 268.805,173.006 C268.618,172.78 268.419,172.54 268.208,172.29 C268.194,172.274 268.182,172.258 268.168,172.242 C267.958,171.994 267.735,171.734 267.501,171.465 C267.482,171.443 267.463,171.421 267.443,171.399 C267.211,171.132 266.966,170.856 266.71,170.572 C266.685,170.543 266.658,170.515 266.633,170.486 C266.376,170.201 266.107,169.909 265.828,169.608 C265.799,169.578 265.771,169.547 265.741,169.516 C265.46,169.215 265.167,168.906 264.862,168.59 C264.83,168.557 264.797,168.523 264.765,168.49 C264.457,168.173 264.14,167.85 263.81,167.521 C263.775,167.487 263.741,167.453 263.707,167.419 C263.373,167.087 263.03,166.75 262.674,166.408 C262.638,166.374 262.601,166.339 262.565,166.305 C262.204,165.96 261.834,165.611 261.45,165.258 C261.418,165.227 261.383,165.196 261.35,165.165 C260.958,164.806 260.557,164.442 260.141,164.075 C260.137,164.072 260.134,164.068 260.13,164.065 L258.185,167.365 Z M238.083,167.365 L238.082,167.366 L245.56,180.056 C246.049,180.528 246.537,181.02 247.023,181.522 C247.077,181.576 247.13,181.628 247.184,181.683 C247.705,182.224 248.226,182.78 248.745,183.35 C248.749,183.354 248.754,183.358 248.758,183.363 L258.185,167.366 L258.184,167.365 L258.185,167.365 L252.853,158.318 C252.853,158.317 252.852,158.316 252.851,158.316 C252.372,157.979 251.882,157.643 251.385,157.308 C251.294,157.247 251.204,157.186 251.114,157.126 C250.654,156.819 250.185,156.513 249.709,156.209 C249.577,156.125 249.443,156.041 249.31,155.957 C248.846,155.664 248.375,155.371 247.895,155.082 C247.767,155.004 247.636,154.929 247.508,154.853 C247.005,154.553 246.499,154.255 245.979,153.961 L245.974,153.971 L238.082,167.365 L238.083,167.365 Z M238.794,268.509 L248.247,278.572 C248.247,278.572 248.306,278.512 248.413,278.4 C248.422,278.391 248.431,278.381 248.44,278.371 C248.49,278.318 248.551,278.255 248.621,278.18 C248.632,278.168 248.643,278.157 248.653,278.146 C248.728,278.066 248.812,277.977 248.906,277.875 C248.919,277.861 248.931,277.848 248.944,277.834 C249.048,277.721 249.162,277.598 249.288,277.461 C249.291,277.457 249.295,277.453 249.298,277.449 C249.423,277.313 249.575,277.143 249.72,276.982 C249.831,276.859 249.935,276.744 250.058,276.607 C250.2,276.447 250.359,276.267 250.517,276.088 C250.633,275.957 250.741,275.835 250.865,275.693 C251.048,275.483 251.249,275.249 251.448,275.018 C251.566,274.881 251.676,274.756 251.799,274.612 C252.128,274.227 252.474,273.817 252.838,273.381 C252.843,273.373 252.849,273.367 252.854,273.36 C253.102,273.063 253.358,272.752 253.622,272.431 C253.625,272.428 253.627,272.424 253.63,272.421 C254.697,271.115 255.881,269.623 257.138,267.961 C257.141,267.957 257.143,267.955 257.145,267.951 L248.133,252.657 L238.794,268.509 Z M197.875,167.365 L197.874,167.366 L207.926,184.423 L207.927,184.421 L207.927,184.423 L217.978,167.366 L217.977,167.365 L217.978,167.365 L207.927,150.307 L197.874,167.365 L197.875,167.365 Z M207.926,150.307 L207.927,150.305 L207.927,150.307 L217.978,133.248 L217.56,132.539 L198.292,132.539 L197.874,133.248 L207.926,150.307 Z M197.874,133.248 L197.456,132.539 L194.103,132.539 C194.074,134.983 193.098,140.231 185.365,141.002 C184.238,141.114 183.256,141.128 182.383,141.075 L187.822,150.307 L197.874,133.248 Z M174.375,139.012 C172.849,140.161 170.266,141.397 166.525,140.881 C163.988,140.531 162.199,139.765 160.938,138.798 L167.72,150.307 L174.375,139.012 Z M217.977,235.6 L217.978,235.6 L207.927,218.541 L197.874,235.6 L197.875,235.6 L197.874,235.601 L203.141,244.537 L212.712,244.537 L217.978,235.601 L217.977,235.6 Z M207.927,184.423 L197.874,201.482 L207.926,218.541 L207.927,218.539 L207.927,218.541 L217.978,201.482 L207.927,184.423 Z M187.822,184.423 L177.771,201.482 L187.822,218.541 L197.874,201.482 L187.822,184.423 Z M167.72,184.423 L157.667,201.482 L167.72,218.541 L177.771,201.482 L167.72,184.423 Z M147.616,184.423 L137.563,201.482 L147.615,218.541 L147.616,218.539 L147.616,218.541 L157.667,201.482 L147.616,184.423 Z M177.771,167.366 L187.822,184.423 L197.874,167.366 L197.873,167.365 L197.874,167.365 L187.822,150.307 L177.771,167.365 L177.771,167.366 Z M177.771,167.365 L167.72,150.307 L157.667,167.365 L157.668,167.365 L157.667,167.366 L167.72,184.423 L177.771,167.366 L177.771,167.365 Z M157.666,167.365 L157.667,167.365 L147.616,150.307 L137.563,167.365 L137.564,167.365 L137.563,167.366 L147.615,184.423 L147.616,184.421 L147.616,184.423 L157.667,167.366 L157.666,167.365 Z M197.873,235.6 L197.874,235.6 L187.822,218.541 L177.771,235.6 L177.771,235.601 L183.037,244.537 L192.607,244.537 L197.874,235.601 L197.873,235.6 Z M177.771,235.6 L167.72,218.541 L157.667,235.6 L157.668,235.6 L157.667,235.601 L162.934,244.537 L172.505,244.537 L177.771,235.601 L177.771,235.6 Z M157.666,235.6 L157.667,235.6 L147.616,218.541 L137.563,235.6 L137.564,235.6 L137.563,235.601 L142.83,244.537 L152.401,244.537 L157.667,235.601 L157.666,235.6 Z M147.616,150.305 L147.616,150.307 L157.667,133.248 L157.249,132.539 L137.981,132.539 L137.563,133.248 L147.615,150.307 L147.616,150.305 Z M137.563,133.248 L137.145,132.539 L128.73,132.539 L128.73,144.447 C128.516,144.662 128.291,144.882 128.056,145.107 C127.358,145.775 126.569,146.487 125.694,147.222 L127.512,150.307 L137.563,133.248 Z M128.73,186.491 L128.73,216.473 L137.563,201.482 L128.73,186.491 Z M137.562,167.365 L137.563,167.365 L127.512,150.307 L117.461,167.365 L117.462,167.365 L117.461,167.366 L121.161,173.644 L121.165,173.651 C121.27,173.606 121.377,173.552 121.483,173.506 C122.334,173.136 123.185,172.751 124.033,172.347 C124.4,172.173 124.767,172 125.133,171.818 C125.486,171.644 125.84,171.46 126.192,171.278 C127.04,170.842 127.887,170.393 128.73,169.913 L128.73,182.355 L137.563,167.366 L137.562,167.365 Z M117.461,167.366 L117.46,167.365 L117.461,167.365 L110.706,155.901 C110.107,156.121 109.496,156.332 108.872,156.534 C108.843,156.543 108.811,156.552 108.781,156.562 C108.174,156.757 107.556,156.945 106.924,157.122 C106.92,157.123 106.915,157.124 106.911,157.125 C105.602,157.491 104.241,157.815 102.828,158.091 C102.826,158.092 102.823,158.092 102.821,158.093 L97.356,167.365 L97.357,167.365 L97.356,167.366 L104.101,178.809 C104.315,178.769 104.536,178.713 104.752,178.671 C105.796,178.468 106.842,178.256 107.897,178.006 C107.921,178.001 107.944,177.995 107.966,177.989 C109.233,177.689 110.509,177.356 111.79,176.989 L117.461,167.366 Z M97.356,167.365 L92.482,159.093 L92.469,159.093 C90.918,159.098 89.32,159.041 87.676,158.915 C87.667,158.915 87.659,158.914 87.65,158.913 C86.834,158.85 86.007,158.771 85.168,158.674 C85.146,158.671 85.124,158.668 85.103,158.665 C84.275,158.568 83.436,158.455 82.585,158.323 C82.584,158.322 82.583,158.322 82.582,158.322 L77.253,167.365 L77.253,167.366 L84.862,180.278 C85.044,180.283 85.232,180.282 85.415,180.286 C86.787,180.314 88.194,180.316 89.637,180.283 C89.674,180.282 89.709,180.283 89.746,180.282 L97.356,167.366 L97.356,167.365 Z M137.563,235.601 L137.562,235.6 L137.563,235.6 L128.73,220.609 L128.73,244.537 L132.297,244.537 L137.563,235.601 Z M37.046,99.131 L37.046,99.132 L38.864,102.217 C38.864,102.214 38.865,102.212 38.865,102.209 C38.894,101.613 38.93,101.027 38.971,100.447 C38.978,100.346 38.985,100.245 38.993,100.145 C39.037,99.556 39.085,98.973 39.141,98.402 C39.141,98.401 39.142,98.401 39.142,98.4 C39.198,97.814 39.262,97.239 39.33,96.673 C39.336,96.626 39.341,96.578 39.347,96.531 C39.417,95.958 39.492,95.395 39.572,94.845 L37.046,99.131 Z M26.995,82.071 L26.995,82.072 L27.96,80.435 L26.139,80.066 L25.768,79.991 L26.994,82.072 L26.995,82.071 Z M37.046,133.248 L47.099,150.307 L51.314,143.153 C51.313,143.152 51.313,143.151 51.311,143.15 C50.745,142.524 50.205,141.885 49.684,141.235 C49.643,141.184 49.602,141.132 49.56,141.08 C47.988,139.1 46.624,137.014 45.445,134.856 C45.413,134.798 45.382,134.74 45.351,134.682 C44.967,133.973 44.601,133.256 44.256,132.533 C44.255,132.53 44.254,132.528 44.253,132.525 C43.551,131.05 42.93,129.547 42.381,128.027 C42.357,127.961 42.333,127.896 42.31,127.83 C42.044,127.087 41.794,126.341 41.563,125.591 C41.562,125.589 41.561,125.587 41.561,125.585 L37.046,133.248 Z M26.995,116.187 L26.995,116.189 L37.046,99.132 L37.046,99.131 L26.995,82.072 L22.463,89.764 L22.46,89.768 C22.454,89.853 22.448,89.946 22.441,90.032 C22.404,90.506 22.368,90.987 22.334,91.484 C22.327,91.586 22.32,91.687 22.313,91.79 C22.231,93.019 22.158,94.32 22.1,95.688 C22.098,95.737 22.095,95.788 22.093,95.838 C22.055,96.745 22.024,97.681 22,98.642 C21.988,99.14 21.984,99.663 21.976,100.175 C21.968,100.655 21.957,101.124 21.955,101.615 C21.951,102.135 21.957,102.675 21.959,103.206 C21.96,103.719 21.959,104.224 21.966,104.746 C21.973,105.255 21.989,105.779 22.001,106.297 C22.013,106.79 22.019,107.273 22.035,107.773 L22.04,107.781 L26.994,116.189 L26.995,116.187 Z M77.252,167.365 L77.253,167.365 L70.11,155.244 C68.46,154.675 66.895,154.044 65.404,153.359 L65.403,153.359 L57.15,167.365 L57.15,167.366 L62.973,177.248 C63.216,177.313 63.479,177.38 63.754,177.449 C63.9,177.486 64.054,177.524 64.209,177.562 C64.365,177.6 64.525,177.639 64.69,177.678 C65.425,177.854 66.24,178.038 67.143,178.226 C67.15,178.228 67.157,178.229 67.164,178.23 C68.165,178.439 69.264,178.649 70.45,178.854 C70.46,178.856 70.47,178.857 70.48,178.859 L77.253,167.366 L77.252,167.365 Z M57.15,167.365 L47.099,150.307 L39.699,162.862 L39.693,162.873 C40.155,163.415 40.629,163.949 41.115,164.476 C41.116,164.476 41.116,164.477 41.117,164.477 C41.6,165 42.094,165.514 42.6,166.02 C42.605,166.025 42.609,166.03 42.614,166.035 C43.117,166.537 43.632,167.03 44.159,167.515 C44.167,167.522 44.175,167.53 44.184,167.538 C44.709,168.021 45.247,168.495 45.796,168.959 C45.806,168.967 45.815,168.976 45.825,168.984 C46.374,169.448 46.936,169.902 47.51,170.347 C47.52,170.355 47.53,170.364 47.541,170.372 C48.116,170.817 48.705,171.252 49.305,171.677 C49.314,171.684 49.323,171.691 49.333,171.697 C49.936,172.124 50.553,172.54 51.182,172.945 C51.189,172.95 51.196,172.955 51.203,172.959 C51.834,173.366 52.479,173.761 53.138,174.146 C53.142,174.148 53.146,174.151 53.15,174.153 L57.15,167.366 L57.15,167.365 Z M26.995,116.189 L23.294,122.468 C23.295,122.476 23.297,122.483 23.298,122.49 C23.575,124.431 23.902,126.388 24.286,128.35 C24.291,128.375 24.296,128.4 24.301,128.425 C24.685,130.382 25.126,132.343 25.63,134.298 C25.635,134.317 25.64,134.336 25.645,134.356 C26.152,136.318 26.723,138.275 27.364,140.213 C27.366,140.22 27.369,140.227 27.371,140.234 C27.691,141.201 28.029,142.164 28.385,143.121 C28.388,143.127 28.39,143.134 28.393,143.141 C28.75,144.101 29.126,145.056 29.522,146.003 C29.523,146.006 29.524,146.009 29.525,146.012 L37.046,133.248 L26.995,116.189 Z" id="Fill-108" fill="#FF8C23" sketch:type="MSShapeGroup"></path>
                <path d="M248.014,252.455 L248.133,252.657 L248.917,251.326 C248.912,251.333 248.907,251.339 248.902,251.346 C248.609,251.717 248.316,252.082 248.023,252.442 C248.021,252.446 248.017,252.451 248.014,252.455" id="Fill-119" fill="#417C42" sketch:type="MSShapeGroup"></path>
                <path d="M158.21,134.17 C158.118,133.592 158.09,133.04 158.1,132.539 L158.085,132.539 L157.667,133.248 L158.21,134.17" id="Fill-124" fill="#417C42" sketch:type="MSShapeGroup"></path>
                <path d="M173.865,244.537 L128.525,244.537 C127.935,282.682 127.086,425.504 141.332,476.055 L161.064,476.055 C161.064,476.055 131.985,370.842 161.064,283.527 L173.875,283.527 L173.365,244.543 L173.865,244.537" id="Fill-150" fill="#242424" sketch:type="MSShapeGroup"></path>
                <path d="M174.365,244.537 L174.875,283.521 L174.375,283.527 L179.685,283.527 L179.176,244.543 L179.676,244.537 L174.365,244.537 Z" id="Fill-151" fill="#262626" sketch:type="MSShapeGroup"></path>
                <path d="M223.496,244.537 L180.176,244.537 L180.685,283.521 L180.185,283.527 L193.395,283.527 C193.395,283.527 221.054,416.941 198.818,476.055 L213.462,476.055 C213.462,476.055 231.914,441.074 225.771,288.49 C225.631,285.006 225.48,281.475 225.314,277.867 C224.826,267.299 224.226,256.201 223.496,244.537" id="Fill-152" fill="#242424" sketch:type="MSShapeGroup"></path>
                <path d="M149.943,78.084 C147.81,78.084 146.082,79.812 146.082,81.946 C146.082,84.079 147.81,85.808 149.943,85.808 C152.076,85.808 153.806,84.079 153.806,81.946 C153.806,79.812 152.076,78.084 149.943,78.084 L149.943,78.084 Z M148.504,82.013 C147.673,82.013 146.998,81.338 146.998,80.506 C146.998,79.674 147.673,79 148.504,79 C149.337,79 150.011,79.674 150.011,80.506 C150.011,81.338 149.337,82.013 148.504,82.013 L148.504,82.013 Z" id="Fill-153" fill="#231F1F" sketch:type="MSShapeGroup"></path>
                <path d="M148.504,79 C147.673,79 146.998,79.674 146.998,80.506 C146.998,81.338 147.673,82.013 148.504,82.013 C149.337,82.013 150.011,81.338 150.011,80.506 C150.011,79.674 149.337,79 148.504,79" id="Fill-154" fill="#FFFFFF" sketch:type="MSShapeGroup"></path>
                <path d="M198.443,78.084 C196.31,78.084 194.581,79.812 194.581,81.946 C194.581,84.079 196.31,85.808 198.443,85.808 C200.577,85.808 202.306,84.079 202.306,81.946 C202.306,79.812 200.577,78.084 198.443,78.084 L198.443,78.084 Z M197.005,82.013 C196.173,82.013 195.499,81.338 195.499,80.506 C195.499,79.674 196.173,79 197.005,79 C197.837,79 198.511,79.674 198.511,80.506 C198.511,81.338 197.837,82.013 197.005,82.013 L197.005,82.013 Z" id="Fill-155" fill="#231F1F" sketch:type="MSShapeGroup"></path>
                <path d="M197.005,79 C196.173,79 195.499,79.674 195.499,80.506 C195.499,81.338 196.173,82.013 197.005,82.013 C197.837,82.013 198.511,81.338 198.511,80.506 C198.511,79.674 197.837,79 197.005,79" id="Fill-156" fill="#FFFFFF" sketch:type="MSShapeGroup"></path>
                <path d="M178.172,99.148 L177.071,106.191 L166.947,107.291 L167.828,79 L164.307,108.832 L179.271,108.832 L178.172,99.148" id="Fill-157" fill="#BFA071" sketch:type="MSShapeGroup"></path>
                <path d="M155.105,118.491 C180.842,128.185 192.626,113.625 192.626,113.625 C181.735,123.279 155.105,118.491 155.105,118.491" id="Fill-158" fill="#BFA071" sketch:type="MSShapeGroup"></path>
                <path d="M163.16,71.052 L163.16,64.126 L160.845,70.763 L160.845,65.843 C149.559,66.133 133.146,72.789 133.146,72.789 C140.753,70.763 163.16,71.052 163.16,71.052" id="Fill-159" fill="#522F06" sketch:type="MSShapeGroup"></path>
                <path d="M213.518,68.458 C213.518,68.458 197.105,61.802 185.819,61.512 L185.819,66.432 L183.504,59.795 L183.504,66.721 C183.504,66.721 205.911,66.432 213.518,68.458" id="Fill-160" fill="#522F06" sketch:type="MSShapeGroup"></path>
                <path d="M174.365,244.537 L174.365,244.531 L173.865,244.537 L173.365,244.543 L173.875,283.527 L173.875,283.533 L174.375,283.527 L174.875,283.521 L174.365,244.537" id="Fill-161" fill="#3B3B3B" sketch:type="MSShapeGroup"></path>
                <path d="M180.176,244.537 L180.176,244.531 L179.676,244.537 L179.176,244.543 L179.685,283.527 L179.685,283.533 L180.185,283.527 L180.685,283.521 L180.176,244.537" id="Fill-162" fill="#3B3B3B" sketch:type="MSShapeGroup"></path>
                <path d="M216.879,35.082 C226.217,1.751 191.057,-5.241 161.3,4.495 C142.962,10.494 132.962,5.161 132.962,5.161 C126.487,22.348 127.302,33.854 131.32,41.558 C129.243,44.4 128.966,47.831 128.966,47.831 L128.966,80.498 C128.966,64.006 132.05,54.407 136.964,48.703 C146.77,57.292 161.3,57.162 161.3,57.162 C152.911,44.71 168.037,39.734 174.02,38.303 C174.783,38.162 175.545,38.006 176.299,37.831 C197.682,42.814 223.633,32.645 223.633,80.498 L223.633,47.831 C223.633,47.831 226.08,35.082 216.879,35.082" id="Fill-163" fill="#291805" sketch:type="MSShapeGroup"></path>
                <path d="M136.926,132.775 L157.88,132.775 C157.87,133.276 157.898,133.828 157.99,134.406 C158.239,135.965 158.967,137.693 160.718,139.035 C161.979,140.001 163.769,140.767 166.306,141.117 C170.046,141.634 172.629,140.396 174.155,139.248 C175.29,138.394 175.844,137.59 175.844,137.59 C175.844,137.59 176.464,140.967 182.163,141.311 C183.036,141.364 184.019,141.35 185.145,141.238 C192.878,140.467 193.854,135.22 193.884,132.775 L223.178,132.775 L223.178,97.697 L208.116,109.847 L201.844,119.136 C201.844,119.136 199.647,114.088 197.396,112.33 C195.144,110.572 173.719,112.33 167.128,112.33 C160.537,112.33 146.474,117.067 146.474,117.067 L142.525,109.206 L128.511,100.609 L128.511,132.775 L136.926,132.775 L136.926,132.775 Z M192.406,113.861 C192.406,113.861 180.622,128.421 154.885,118.727 C154.885,118.727 181.516,123.516 192.406,113.861 L192.406,113.861 Z" id="Fill-164" opacity="0.132929104" fill="#1F1917" sketch:type="MSShapeGroup"></path>
                <path d="M131.191809,39.5174185 C131.191809,39.5174185 128.722578,40.9489577 128.722578,44.7638199 L128.716077,80.2157333 L128.999614,73.2818829 C128.999614,73.2818829 130.032019,62.6328148 131.098035,57.3558164 C132.164051,52.0788179 135.395707,41.6198921 135.395707,41.6198921 L131.191809,39.5174185 Z" id="Path-1766" fill="#291905" sketch:type="MSShapeGroup"></path>
            </g>
        </g>
    </g>
</svg>