<?xml version="1.0"?>
<svg width="25" height="25" xmlns="http://www.w3.org/2000/svg" xmlns:svg="http://www.w3.org/2000/svg">
 <g>
  <title>Layer 1</title>
  <path d="m12.5,6.84757c-3.10914,0 -5.62933,2.53075 -5.62933,5.65243s2.520131,5.65243 5.62933,5.65243c3.10886,0 5.62933,-2.530749 5.62933,-5.65243s-2.52047,-5.65243 -5.62933,-5.65243zm11.245871,4.71145l-1.805941,0c-0.440479,-4.50912 -4.01239,-8.09504 -8.50279,-8.53727l0,-1.81378c0,-0.51965 -0.419629,-0.94098 -0.93714,-0.94098s-0.93714,0.42133 -0.93714,0.94098l0,1.81385c-4.490551,0.44223 -8.062241,4.02808 -8.50265,8.5372l-1.80608,0c-0.51753,0 -0.93714,0.42134 -0.93714,0.94098s0.41961,0.94098 0.93714,0.94098l1.80608,0c0.44041,4.50912 4.0121,8.09497 8.50265,8.5372l0,1.81385c0,0.51964 0.419609,0.940979 0.93714,0.940979s0.93714,-0.421339 0.93714,-0.940979l0,-1.81385c4.49048,-0.44223 8.062361,-4.02808 8.50284,-8.5372l1.805891,0c0.517509,0 0.93714,-0.42134 0.93714,-0.94098s-0.41963,-0.94098 -0.93714,-0.94098zm-11.245871,8.539741c-4.17947,0 -7.5675,-3.402361 -7.5675,-7.598761s3.38803,-7.59876 7.5675,-7.59876c4.179661,0 7.567699,3.40236 7.567699,7.59876s-3.388039,7.598761 -7.567699,7.598761z" clip-rule="evenodd" fill-rule="evenodd" id="svg_1" fill="#007095"/>
 </g>
</svg>