<?xml version="1.0" encoding="iso-8859-1"?>
<!-- Generator: Adobe Illustrator 17.0.0, SVG Export Plug-In . SVG Version: 6.00 Build 0)  -->
<!DOCTYPE svg PUBLIC "-//W3C//DTD SVG 1.1//EN" "http://www.w3.org/Graphics/SVG/1.1/DTD/svg11.dtd">
<svg version="1.1" id="Capa_1" xmlns="http://www.w3.org/2000/svg" xmlns:xlink="http://www.w3.org/1999/xlink" x="0px" y="0px"
	 width="64px" height="64px" viewBox="0 0 64 64" style="enable-background:new 0 0 64 64;" xml:space="preserve">
<g>
	<path d="M31.904,55.925c13.992,0,25.332-11.343,25.332-25.333c0-3.169-0.587-6.198-1.649-8.994l-10.65,19.694l2.228,2.712
		c0.175,0.214,0.145,0.528-0.069,0.704c-0.093,0.076-0.206,0.113-0.317,0.113c-0.144,0-0.288-0.062-0.387-0.183l-2.03-2.471
		l-3.459,5.278l-5.125-3.375l18.726-24.92c-4.18-8.241-12.727-13.893-22.6-13.893c-13.992,0-25.333,11.343-25.333,25.333
		S17.912,55.925,31.904,55.925z M31.904,22.426c4.51,0,8.166,3.656,8.166,8.166s-3.656,8.166-8.166,8.166
		c-4.51,0-8.166-3.656-8.166-8.166S27.394,22.426,31.904,22.426z"/>
	<circle cx="31.904" cy="30.592" r="1.812"/>
</g>
</svg>
