<?xml version="1.0"?>
<svg width="25" height="25" xmlns="http://www.w3.org/2000/svg" xmlns:svg="http://www.w3.org/2000/svg">
 <g>
  <title>Layer 1</title>
  <g stroke="null" id="svg_1">
   <path stroke="null" id="svg_2" d="m12.500243,24.825003c6.784043,0 12.282258,-5.522404 12.282258,-12.333516c0,-1.542846 -0.284607,-3.01753 -0.799524,-4.378779l-5.163664,9.588135l1.08025,1.320353c0.084846,0.104187 0.070307,0.257059 -0.033451,0.342749c-0.045097,0.036999 -0.099884,0.055012 -0.153706,0.055012c-0.069817,0 -0.139633,-0.030186 -0.187637,-0.089092l-0.984241,-1.203022l-1.677101,2.569624l-2.484869,-1.643137l9.079336,-12.132442c-2.026686,-4.012178 -6.170712,-6.763886 -10.95765,-6.763886c-6.784043,0 -12.282745,5.522403 -12.282745,12.333514s5.498702,12.33449 12.282745,12.33449zm0,-16.309179c2.18668,0 3.959298,1.779945 3.959298,3.975663s-1.772618,3.975663 -3.959298,3.975663c-2.186682,0 -3.959299,-1.779943 -3.959299,-3.975663s1.772617,-3.975663 3.959299,-3.975663z"/>
   <circle stroke="null" id="svg_3" r="0.769424" cy="12.491487" cx="12.500243"/>
  </g>
 </g>
</svg>