<?xml version="1.0"?>
<svg width="24" height="24" xmlns="http://www.w3.org/2000/svg">

 <g>
  <title>background</title>
  <rect fill="none" id="canvas_background" height="26" width="26" y="-1" x="-1"/>
 </g>
 <g>
  <title>Layer 1</title>
  <g stroke="null" id="svg_1">
   <path stroke="null" id="svg_2" d="m12.018315,24.033293c6.531583,0 11.825192,-5.323362 11.825192,-11.888987c0,-1.487238 -0.274019,-2.908773 -0.769768,-4.22096l-4.97151,9.242558l1.040049,1.272764c0.081692,0.100431 0.067688,0.247795 -0.032209,0.330393c-0.043413,0.035669 -0.096163,0.053032 -0.147978,0.053032c-0.067223,0 -0.134441,-0.029097 -0.180656,-0.085882l-0.94762,-1.15966l-1.614689,2.477009l-2.392394,-1.583916l8.741456,-11.695165c-1.95126,-3.867569 -5.941072,-6.520101 -10.549872,-6.520101c-6.531582,0 -11.825656,5.323365 -11.825656,11.888988s5.294075,11.889925 11.825656,11.889925zm0,-15.721358c2.105308,0 3.811957,1.715792 3.811957,3.832372s-1.70665,3.832373 -3.811957,3.832373c-2.105306,0 -3.811956,-1.715792 -3.811956,-3.832373s1.706651,-3.832372 3.811956,-3.832372z"/>
   <circle stroke="null" id="svg_3" r="0.820916" cy="12.144306" cx="12.018316"/>
  </g>
 </g>
</svg>