<?xml version="1.0"?>
<svg width="25" height="25" xmlns="http://www.w3.org/2000/svg" xmlns:svg="http://www.w3.org/2000/svg">
 <g>
  <title>Layer 1</title>
  <g stroke="null" id="svg_1">
   <path stroke="null" id="svg_2" d="m12.500758,2.126487c-5.659621,0 -10.247007,4.644019 -10.247007,10.373513c0,4.128188 2.388235,7.68212 5.836556,9.351846l0.320457,-6.27377c0,0 -0.602943,-0.200644 -0.735075,-0.265986c-1.279546,-0.570415 -2.209022,-2.250901 -2.209022,-4.431076c0,-2.379282 1.822502,-4.42877 3.585011,-4.445683c0.002278,0 0.002278,0 0.003798,0c0.000759,0 0.002276,0 0.003036,0c1.76251,0.016912 3.58577,2.066401 3.58577,4.445683c0,2.180175 -0.930995,3.859894 -2.208263,4.431076c-0.009871,0.004611 -0.74115,0.272905 -0.74115,0.272905l0.358425,6.976406c0.785952,0.196032 1.60304,0.310577 2.448984,0.310577c1.140581,0 2.23332,-0.196802 3.257717,-0.544277l0.317419,-6.216881c-0.83683,-0.186039 -1.549882,-0.724934 -1.997155,-1.401433c-0.554343,-0.840242 0.426008,-8.274825 0.426008,-8.274825l0.638637,0l0,6.977176l0.633318,0l0,-6.976407l0.691793,0l0,6.977176l0.631039,0l0,-6.977176l0.718369,0l0,6.977176l0.632559,0l0,-6.977176l0.489798,0c0,0 0.979595,7.434583 0.425249,8.274827c-0.442713,0.66958 -1.149693,1.206938 -1.975132,1.397586c-0.01519,0.005383 -0.028097,0.010763 -0.028097,0.010763l0.274895,5.347425c3.052687,-1.796568 5.109833,-5.134483 5.109833,-8.965932c-0.001518,-5.729494 -4.588903,-10.373513 -10.247767,-10.373513z"/>
   <path stroke="null" id="svg_3" d="m6.966434,9.826288c0.036449,-0.151444 0.085809,-0.295201 0.088087,-0.297505c0.015948,-0.056889 -0.01367,-0.114545 -0.074419,-0.151445c-0.057713,-0.031518 -0.128334,-0.015374 -0.160986,0.035363c0,0 -0.069863,0.113007 -0.171618,0.279825c-0.082773,0.143757 -0.205033,0.373612 -0.288564,0.659587c-0.072141,0.250612 -0.158708,0.58425 -0.197437,0.957094c-0.016706,0.196032 -0.020504,0.372844 -0.014429,0.555037c0.014429,0.207561 0.045564,0.385143 0.104794,0.588094c0.201234,0.579638 0.356149,1.140056 0.915807,1.692788c0.176934,0.184499 0.358425,0.309806 0.489796,0.402055l0.046323,0.033057c0.028096,0.019219 0.055434,0.036131 0.082013,0.051507c0.110109,0.059193 0.183769,0.07995 0.197438,0.083026c0.054675,0.014604 0.110868,-0.012301 0.134409,-0.05689c0.022021,-0.04766 0.006076,-0.106854 -0.039488,-0.144525c0,0 -0.063788,-0.056119 -0.145801,-0.161436c-0.056193,-0.063806 -0.116942,-0.156057 -0.187566,-0.259838c-0.050117,-0.074568 -0.109349,-0.157595 -0.164024,-0.238313c-0.272615,-0.421274 -0.429805,-1.009368 -0.646987,-1.611299c-0.042525,-0.130688 -0.077456,-0.299814 -0.090367,-0.443569c-0.017466,-0.166051 -0.025818,-0.325952 -0.025818,-0.474319c-0.006074,-0.3444 0.009112,-0.640368 0.038729,-0.880219c0.03417,-0.2706 0.060749,-0.47355 0.110109,-0.618075z"/>
   <path stroke="null" id="svg_4" d="m12.500758,0.2c-6.699206,0 -12.15076,5.518087 -12.15076,12.300001c0,6.781144 5.451554,12.3 12.15076,12.3c6.698449,0 12.149243,-5.518856 12.149243,-12.3c0,-6.781914 -5.450794,-12.300001 -12.149243,-12.300001zm0,23.682881c-6.200297,0 -11.244825,-5.106806 -11.244825,-11.38288c0,-6.276845 5.044528,-11.383651 11.244825,-11.383651c6.199538,0 11.244067,5.106807 11.244067,11.383651c0,6.276074 -5.044527,11.38288 -11.244067,11.38288z"/>
  </g>
  <g id="svg_5"/>
  <g id="svg_6"/>
  <g id="svg_7"/>
  <g id="svg_8"/>
  <g id="svg_9"/>
  <g id="svg_10"/>
  <g id="svg_11"/>
  <g id="svg_12"/>
  <g id="svg_13"/>
  <g id="svg_14"/>
  <g id="svg_15"/>
  <g id="svg_16"/>
  <g id="svg_17"/>
  <g id="svg_18"/>
  <g id="svg_19"/>
 </g>
</svg>