<?xml version="1.0"?>
<svg width="24.000000000000004" height="24.000000000000004" xmlns="http://www.w3.org/2000/svg">

 <g>
  <title>background</title>
  <rect fill="none" id="canvas_background" height="26" width="26" y="-1" x="-1"/>
 </g>
 <g>
  <title>Layer 1</title>
  <g stroke="null" id="svg_1">
   <path stroke="null" id="svg_2" d="m11.962927,1.86835c-5.572133,0 -10.088603,4.503871 -10.088603,10.060459c0,4.003608 2.351315,7.450286 5.746332,9.069625l0.315502,-6.084441c0,0 -0.593623,-0.194588 -0.723711,-0.257959c-1.259768,-0.553198 -2.174874,-2.182972 -2.174874,-4.297354c0,-2.307479 1.794327,-4.295116 3.529591,-4.311519c0.002243,0 0.002243,0 0.003738,0c0.000748,0 0.002243,0 0.002991,0c1.735263,0.016403 3.530337,2.00404 3.530337,4.311519c0,2.114382 -0.916602,3.743411 -2.174127,4.297354c-0.009719,0.004473 -0.729692,0.26467 -0.729692,0.26467l0.352884,6.765871c0.773804,0.190115 1.57826,0.301203 2.411127,0.301203c1.12295,0 2.198798,-0.190861 3.207358,-0.527849l0.312513,-6.029267c-0.823897,-0.180425 -1.525926,-0.703055 -1.966285,-1.359138c-0.545774,-0.814888 0.419424,-8.025108 0.419424,-8.025108l0.628763,0l0,6.766619l0.623528,0l0,-6.765873l0.681096,0l0,6.766618l0.621286,0l0,-6.766618l0.707262,0l0,6.766618l0.622782,0l0,-6.766618l0.482225,0c0,0 0.964453,7.21022 0.418676,8.025107c-0.435871,0.649374 -1.131922,1.170515 -1.944601,1.355412c-0.014954,0.005219 -0.027664,0.010438 -0.027664,0.010438l0.270647,5.186049c3.005497,-1.742353 5.030844,-4.979534 5.030844,-8.695357c-0.001495,-5.556588 -4.517969,-10.060459 -10.089352,-10.060459z"/>
   <path stroke="null" id="svg_3" d="m6.514154,9.335785c0.035886,-0.146874 0.084483,-0.286292 0.086726,-0.288528c0.015701,-0.055171 -0.013458,-0.111087 -0.073269,-0.146873c-0.05682,-0.030567 -0.12635,-0.014911 -0.158498,0.034296c0,0 -0.068783,0.109594 -0.168965,0.271379c-0.081493,0.139418 -0.201862,0.362338 -0.284102,0.639683c-0.071025,0.24305 -0.156256,0.566618 -0.194386,0.92821c-0.016448,0.190116 -0.020186,0.361592 -0.014205,0.538288c0.014205,0.201298 0.044858,0.373521 0.103174,0.570345c0.198123,0.562146 0.350642,1.105652 0.901649,1.641703c0.1742,0.178932 0.352885,0.300457 0.482226,0.389923l0.045606,0.032058c0.027661,0.018641 0.054576,0.035042 0.080744,0.049953c0.108407,0.057407 0.180928,0.077538 0.194385,0.08052c0.05383,0.014165 0.109155,-0.01193 0.132332,-0.055172c0.021681,-0.046223 0.005981,-0.103632 -0.038877,-0.140163c0,0 -0.062801,-0.054425 -0.143547,-0.156565c-0.055325,-0.061881 -0.115135,-0.151347 -0.184666,-0.251997c-0.049344,-0.072317 -0.10766,-0.152839 -0.161489,-0.23112c-0.268401,-0.408562 -0.423162,-0.978908 -0.636986,-1.562674c-0.041868,-0.126744 -0.076259,-0.290766 -0.08897,-0.430182c-0.017195,-0.16104 -0.025419,-0.316114 -0.025419,-0.460006c-0.005981,-0.334007 0.008972,-0.621043 0.038129,-0.853655c0.033643,-0.262434 0.059811,-0.459259 0.108407,-0.599422z"/>
   <path stroke="null" id="svg_4" d="m11.962927,0c-6.595647,0 -11.962927,5.351562 -11.962927,11.928809c0,6.576503 5.36728,11.928809 11.962927,11.928809c6.5949,0 11.961432,-5.352306 11.961432,-11.928809c0,-6.577247 -5.366531,-11.928809 -11.961432,-11.928809zm0,22.968178c-6.104449,0 -11.070997,-4.952694 -11.070997,-11.039369c0,-6.08742 4.966548,-11.040113 11.070997,-11.040113c6.103701,0 11.07025,4.952693 11.07025,11.040113c0,6.086675 -4.966547,11.039369 -11.07025,11.039369z"/>
  </g>
  <g id="svg_5"/>
  <g id="svg_6"/>
  <g id="svg_7"/>
  <g id="svg_8"/>
  <g id="svg_9"/>
  <g id="svg_10"/>
  <g id="svg_11"/>
  <g id="svg_12"/>
  <g id="svg_13"/>
  <g id="svg_14"/>
  <g id="svg_15"/>
  <g id="svg_16"/>
  <g id="svg_17"/>
  <g id="svg_18"/>
  <g id="svg_19"/>
 </g>
</svg>