<?xml version="1.0"?>
<svg width="300" height="275" xmlns="http://www.w3.org/2000/svg">

 <g>
  <title>background</title>
  <rect fill="none" id="canvas_background" height="402" width="582" y="-1" x="-1"/>
 </g>
 <g>
  <title>Layer 1</title>
  <polygon id="svg_1" points="150,25  179,111 269,111 197,165                     223,251  150,200 77,251  103,165                     31,111 121,111" stroke-width="15" stroke="#605a00" fill="#fdff00"/>
  <g stroke="null" id="svg_8">
   <g stroke="null" transform="matrix(3.0999683655719354,0,0,3.0815455764996793,47.766554693332914,27.864215611443107) " id="svg_7">
    <title stroke="null" transform="translate(5.161343097686768,11.682449340820312) translate(16.660499572753906,18.37389373779297) translate(-1.4590609073638916,0) translate(0,-2.272731304168701) ">Layer 1</title>
    <path stroke="null" fill="#010101" d="m37.897171,51.13361l-4.098579,0l0,-7.824158c1.789951,-0.172581 3.466167,-0.867321 4.775818,-2.063137c3.089985,-2.823772 3.298092,-10.050793 0.37785,-13.106903l-0.244938,-0.2558l-11.458479,0l-0.24419,0.2558c-2.91942,3.05611 -2.709671,10.283909 0.38032,13.106903c1.307989,1.195816 2.98428,1.890556 4.774231,2.063137l0,7.824158l-4.098591,0c-0.453091,0 -0.81971,0.346622 -0.81971,0.775002s0.366619,0.775009 0.81971,0.775009l4.098591,0l1.639431,0l4.098598,0c0.453102,0 0.81971,-0.34663 0.81971,-0.775009s-0.366673,-0.775002 -0.819771,-0.775002zm-9.89983,-21.699997l9.96228,0c2.10376,2.60429 1.865181,8.515171 -0.525131,10.697861c-2.399918,2.19257 -6.508928,2.195572 -8.909609,0.000767c-2.39036,-2.183456 -2.6313,-8.094337 -0.52754,-10.698627zm1.097502,10.141598c-1.194391,-1.091339 -1.772341,-3.333847 -1.706701,-5.4916l11.181469,0c0.067261,2.158524 -0.51075,4.400261 -1.705078,5.490829c-1.983669,1.814182 -5.785252,1.814182 -7.76969,0.000771z" id="svg_5"/>
   </g>
  </g>
 </g>
</svg>