<?xml version="1.0"?>
<svg width="300" height="275" xmlns="http://www.w3.org/2000/svg">

 <g>
  <title>background</title>
  <rect fill="none" id="canvas_background" height="402" width="582" y="-1" x="-1"/>
 </g>
 <g>
  <title>Layer 1</title>
  <polygon id="svg_1" points="148,23 177,109 267,109 195,163 221,249 148,198 75,249 101,163 29,109 119,109 " stroke-width="15" stroke="#605a00" fill="#fdff00"/>
  <g stroke="null" id="svg_77">
   <g stroke="null" transform="matrix(3.4032927902281123,0,0,3.0785910248807866,-9.970629315133692,-21.485587462474683) " id="svg_76">
    <title stroke="null" transform="translate(35.553802490234375,45.1505241394043) translate(-1.3429746627807617,0) translate(0,-2.2727272510528564) ">Layer 1</title>
    <g stroke="null" id="svg_71">
     <path stroke="null" d="m46.711628,45.004288c-5.65966,0 -10.247051,4.64402 -10.247051,10.373508c0,4.128201 2.388241,7.682102 5.836563,9.351803l0.32045,-6.273701c0,0 -0.60294,-0.200703 -0.735073,-0.265999c-1.279549,-0.5704 -2.209019,-2.250904 -2.209019,-4.431103c0,-2.379269 1.822498,-4.428761 3.585011,-4.445671c0.002277,0 0.002277,0 0.003799,0c0.000759,0 0.00227,0 0.003029,0c1.762493,0.016911 3.585793,2.066402 3.585793,4.445671c0,2.180199 -0.931004,3.859901 -2.208302,4.431103c-0.009899,0.004597 -0.741131,0.2729 -0.741131,0.2729l0.358429,6.976395c0.785904,0.195999 1.603001,0.3106 2.449001,0.3106c1.140602,0 2.233299,-0.1968 3.257702,-0.544296l0.317398,-6.2169c-0.8368,-0.186001 -1.5499,-0.724899 -1.997101,-1.401402c-0.554398,-0.840298 0.426003,-8.274841 0.426003,-8.274841l0.638599,0l0,6.977142l0.633301,0l0,-6.976372l0.691799,0l0,6.977173l0.6311,0l0,-6.977173l0.7183,0l0,6.977173l0.632599,0l0,-6.977173l0.489799,0c0,0 0.979603,7.43457 0.425201,8.274872c-0.442703,0.669498 -1.1497,1.206898 -1.975098,1.397499c-0.015202,0.005402 -0.028103,0.010799 -0.028103,0.010799l0.274902,5.347401c3.0527,-1.796501 5.109798,-5.134499 5.109798,-8.9659c-0.001499,-5.729488 -4.588902,-10.373508 -10.2477,-10.373508l0,0z" id="svg_74"/>
     <path stroke="null" d="m41.177258,52.704086c0.036449,-0.151451 0.085812,-0.2952 0.088089,-0.297508c0.015949,-0.056892 -0.013668,-0.11454 -0.074417,-0.15144c-0.057713,-0.031521 -0.12833,-0.015381 -0.16098,0.035358c0,0 -0.06987,0.11301 -0.171619,0.279831c-0.082783,0.143749 -0.205044,0.373569 -0.28857,0.659569c-0.07214,0.250603 -0.158703,0.584301 -0.19743,0.9571c-0.016712,0.196003 -0.020512,0.372902 -0.014431,0.555c0.014431,0.2076 0.045559,0.385201 0.10479,0.5881c0.201241,0.5797 0.356152,1.140099 0.91581,1.692799c0.176929,0.184502 0.358421,0.309799 0.489788,0.402103l0.046333,0.032997c0.028088,0.019302 0.055428,0.036201 0.082008,0.051502c0.110111,0.059196 0.183769,0.079998 0.197441,0.083099c0.054668,0.014599 0.11087,-0.012302 0.134411,-0.0569c0.022018,-0.047699 0.006069,-0.106903 -0.039494,-0.144501c0,0 -0.063789,-0.056198 -0.145798,-0.161499c-0.05619,-0.063801 -0.11694,-0.156002 -0.187569,-0.2598c-0.05011,-0.0746 -0.109352,-0.1576 -0.164021,-0.2383c-0.272621,-0.421303 -0.429813,-1.009399 -0.646992,-1.611301c-0.042519,-0.130699 -0.07745,-0.299801 -0.090359,-0.4436c-0.017471,-0.1661 -0.025822,-0.326 -0.025822,-0.4743c-0.006081,-0.344398 0.009109,-0.6404 0.038731,-0.880199c0.034168,-0.270599 0.060749,-0.473591 0.1101,-0.618111l0,0z" id="svg_73"/>
     <path stroke="null" d="m46.711586,43.077797c-6.699207,0 -12.150761,5.518085 -12.150761,12.300003c0,6.781143 5.451553,12.299995 12.150761,12.299995c6.698448,0 12.149242,-5.518852 12.149242,-12.299995c0,-6.781918 -5.450794,-12.300003 -12.149242,-12.300003zm0,23.682877c-6.200298,0 -11.244823,-5.1068 -11.244823,-11.382877c0,-6.276844 5.044525,-11.383652 11.244823,-11.383652c6.199539,0 11.244068,5.106808 11.244068,11.383652c0,6.276073 -5.044529,11.382877 -11.244068,11.382877z" id="svg_72"/>
    </g>
    <g stroke="null" id="svg_70"/>
    <g stroke="null" id="svg_69"/>
    <g stroke="null" id="svg_68"/>
    <g stroke="null" id="svg_67"/>
    <g stroke="null" id="svg_66"/>
    <g stroke="null" id="svg_65"/>
    <g stroke="null" id="svg_64"/>
    <g stroke="null" id="svg_63"/>
    <g stroke="null" id="svg_62"/>
    <g stroke="null" id="svg_61"/>
    <g stroke="null" id="svg_60"/>
    <g stroke="null" id="svg_59"/>
    <g stroke="null" id="svg_58"/>
    <g stroke="null" id="svg_57"/>
    <g stroke="null" id="svg_56"/>
   </g>
  </g>
 </g>
</svg>