<?xml version="1.0"?>
<svg width="300" height="275" xmlns="http://www.w3.org/2000/svg">

 <g>
  <title>background</title>
  <rect fill="none" id="canvas_background" height="402" width="582" y="-1" x="-1"/>
 </g>
 <g>
  <title>Layer 1</title>
  <polygon id="svg_1" points="148,23 177,109 267,109 195,163 221,249 148,198 75,249 101,163 29,109 119,109 " stroke-width="15" stroke="#605a00" fill="#fdff00"/>
  <g stroke="null" id="svg_34">
   <g stroke="null" transform="matrix(3.023114670811019,0,0,2.8233970718063146,19.312658931432154,12.270655226345752) " id="svg_33">
    <title stroke="null" transform="translate(7.916902542114258,2.2894599437713623) translate(23.824663162231445,36.08760452270508) translate(-1.3429745435714722,0) translate(0,-2.2637290954589844) ">Layer 1</title>
    <g stroke="null" id="svg_29">
     <path stroke="null" d="m42.898788,60.938335c6.784103,0 12.282303,-5.5224 12.282303,-12.3335c0,-1.5429 -0.284599,-3.01754 -0.7995,-4.378792l-5.163704,9.588089l1.080299,1.320404c0.084805,0.104198 0.070305,0.257095 -0.033493,0.342697c-0.045101,0.037003 -0.099903,0.055103 -0.153702,0.055103c-0.069801,0 -0.139603,-0.030201 -0.187599,-0.0891l-0.984299,-1.203102l-1.677101,2.569698l-2.484802,-1.6432l9.079304,-12.132408c-2.026707,-4.01218 -6.170704,-6.763889 -10.957706,-6.763889c-6.784,0 -12.282698,5.5224 -12.282698,12.3335s5.498697,12.334499 12.282698,12.334499l0,0zm0,-16.309181c2.186699,0 3.959305,1.77998 3.959305,3.975681s-1.772606,3.975601 -3.959305,3.975601c-2.1866,0 -3.959255,-1.779903 -3.959255,-3.975601s1.772655,-3.975681 3.959255,-3.975681z" id="svg_31"/>
     <circle stroke="null" cx="42.898834" cy="48.604822" r="0.769424" id="svg_30"/>
    </g>
   </g>
  </g>
 </g>
</svg>