<?xml version="1.0"?>
<svg width="300" height="275" xmlns="http://www.w3.org/2000/svg">

 <g>
  <title>background</title>
  <rect fill="none" id="canvas_background" height="402" width="582" y="-1" x="-1"/>
 </g>
 <g>
  <title>Layer 1</title>
  <polygon id="svg_1" points="150,25  179,111 269,111 197,165                     223,251  150,200 77,251  103,165                     31,111 121,111" stroke-width="15" stroke="#605a00" fill="#fdff00"/>
  <g stroke="null" id="svg_23">
   <g stroke="null" transform="matrix(3.7705913893397236,0,0,3.44526236620749,2.9314104256378926,-20.23562678718781) " id="svg_22">
    <title stroke="null" transform="translate(28.64272117614746,36.281707763671875) translate(-1.3429759740829468,0) translate(0,-2.3237271308898926) ">Layer 1</title>
    <g stroke="null" id="svg_16">
     <path stroke="null" id="svg_20" d="m31.701748,58.217911l2.949986,0c0.041004,0.304169 0.254017,0.542068 0.52301,0.542068l6.707005,0c0.268993,0 0.481998,-0.236717 0.522991,-0.542068l2.949997,0c0.499004,0 0.903,-0.478157 0.903,-1.068748l-15.457991,0c0,0.590591 0.403999,1.068748 0.902002,1.068748z"/>
     <path stroke="null" id="svg_19" d="m49.810745,47.23328c-0.750999,-0.720699 -1.809998,-0.732601 -2.507999,-0.641399c0.02,-0.575302 0.031002,-1.163502 0.031002,-1.775398l-18.388002,0c0,5.8811 0.751999,10.126499 5.511,11.708897l7.366001,0c1.885002,-0.626099 3.135002,-1.677097 3.963997,-3.076c1.806,-0.041397 4.711002,-0.882996 4.82,-3.834797c0.047005,-1.2924 -0.406998,-2.0084 -0.795998,-2.381302l0,0zm-3.267998,4.528301c0.346001,-1.051003 0.550999,-2.234501 0.663998,-3.536499c0.489002,-0.094601 1.329998,-0.155003 1.754002,0.254498c0.078999,0.075802 0.321999,0.310101 0.293999,1.066402c-0.056999,1.529198 -1.660999,2.042801 -2.711998,2.215599l0,0l0,0z"/>
     <path stroke="null" id="svg_18" d="m36.436745,43.990372c0,0 3.5,-0.30418 1.895988,-3.796852c-1.287991,-2.803848 -0.99398,-4.44899 0.654011,-5.935539c0,0 -5.397995,1.627392 -2.25,6.663429c1.155003,2.194309 -0.299999,3.068962 -0.299999,3.068962z"/>
     <path stroke="null" id="svg_17" d="m38.79575,43.711052c0,0 2.804001,-0.699482 1.278,-3.368401c-0.553997,-1.15752 0.209995,-1.57058 0.209995,-1.57058s-1.804996,0.067459 -1.043003,1.90316c0.610001,1.475887 0.429001,2.31385 -0.444992,3.03582z"/>
    </g>
   </g>
  </g>
 </g>
</svg>